PathFileType	4	(X/Y/Z)	C:/Users/opensim2020/Desktop/walking_exp_matlab/subject06_walking18_straight_01.trc	
DataRate	CameraRate	NumFrames	NumMarkers	Units	OrigDataRate	OrigDataStartFrame	OrigNumFrames	
100.00	100.00	9	47	mm	100.00	1315	396	
Frame#	Time	LFHD			RFHD			LBHD			RBHD			C7			T10			CLAV			STRN			RBAK			LSHO			LUPA			LELB			LFRM			LWRA			LWRB			LFIN			RSHO			RUPA			RELB			RFRM			RWRA			RWRB			RFIN			LASI			RASI			LPSI			RPSI			LTHI			LKNE			LTIB			LANK			LHEE			LTOE			RTHI			RKNE			RTIB			RANK			RHEE			RTOE			*39			*40			*41			*42			*43			*44			*45			*46			
		X1	Y1	Z1	X2	Y2	Z2	X3	Y3	Z3	X4	Y4	Z4	X5	Y5	Z5	X6	Y6	Z6	X7	Y7	Z7	X8	Y8	Z8	X9	Y9	Z9	X10	Y10	Z10	X11	Y11	Z11	X12	Y12	Z12	X13	Y13	Z13	X14	Y14	Z14	X15	Y15	Z15	X16	Y16	Z16	X17	Y17	Z17	X18	Y18	Z18	X19	Y19	Z19	X20	Y20	Z20	X21	Y21	Z21	X22	Y22	Z22	X23	Y23	Z23	X24	Y24	Z24	X25	Y25	Z25	X26	Y26	Z26	X27	Y27	Z27	X28	Y28	Z28	X29	Y29	Z29	X30	Y30	Z30	X31	Y31	Z31	X32	Y32	Z32	X33	Y33	Z33	X34	Y34	Z34	X35	Y35	Z35	X36	Y36	Z36	X37	Y37	Z37	X38	Y38	Z38	X39	Y39	Z39	X40	Y40	Z40	X41	Y41	Z41	X42	Y42	Z42	X43	Y43	Z43	X44	Y44	Z44	X45	Y45	Z45	X46	Y46	Z46	X47	Y47	Z47	

298	2.970	1383.96680	891.59283	1675.33362	1514.65710	895.54395	1659.16907	1384.19751	760.06860	1616.48328	1513.60107	765.18591	1605.33948	1433.41284	765.38617	1458.41150	1439.53638	730.75403	1131.02795	1431.73206	876.02869	1382.32043	1420.04529	914.88434	1205.67761	1511.60095	693.70422	1286.37268	1271.80945	822.08521	1416.22888	1201.13635	833.03125	1212.93750	1191.59778	840.17682	1100.06763	1179.66162	896.44946	959.26544	1233.79810	977.56311	864.94757	1190.93188	925.34497	844.30035	1200.69824	983.99939	775.34149	1593.28369	832.66125	1412.23999	1676.12463	797.88202	1211.06921	1684.76929	808.91919	1089.41406	1699.94690	823.87140	969.72937	1666.98340	881.65668	829.83990	1706.41870	827.65747	831.58081	1707.48547	863.01770	754.26221	1317.10681	891.52228	963.26514	1536.65894	914.41571	974.88293	1358.33801	739.88507	997.56616	1525.12231	759.91968	1005.63135	1268.00708	791.31055	648.82452	1284.03101	779.11829	484.76791	1300.68274	599.73315	305.27261	1343.11633	491.69379	171.61391	1393.34790	458.14392	186.06779	1342.92664	569.25153	47.48591	1600.02014	883.12653	646.37250	1571.67920	897.00574	522.71655	1571.38782	876.84692	257.04526	1521.53064	880.86676	72.16471	1477.14355	841.92719	48.88312	1518.17456	1034.89490	39.57666	1446.77466	791.58911	1707.61963																					 
299	2.980	1385.24658	897.90839	1675.46326	1515.94299	901.83264	1659.35437	1385.51392	766.31683	1616.64343	1514.83350	771.40985	1605.53662	1434.74524	771.59277	1458.73975	1440.91309	736.57043	1131.28442	1433.06067	882.13025	1382.42639	1421.33911	920.63037	1205.69507	1513.18384	699.72229	1286.72644	1273.36584	828.15729	1416.12195	1202.51331	837.78137	1212.89697	1193.08704	844.19159	1099.94409	1179.98694	899.46991	958.85358	1233.32739	979.77368	863.32019	1190.26563	927.47363	843.53717	1199.93823	984.92908	773.66229	1594.63062	839.09344	1412.39783	1677.59436	804.76337	1211.20618	1686.24780	816.03705	1089.61694	1701.26123	831.45349	969.94830	1667.66882	889.67688	830.37665	1707.37720	835.84717	831.74042	1708.02856	871.59113	754.56354	1318.37488	896.99365	963.25146	1538.11157	919.90363	974.91266	1359.35449	745.30682	997.64722	1526.14905	765.28168	1005.84430	1268.48523	800.16425	648.28455	1284.01392	790.82074	484.20898	1301.45679	610.09955	307.11130	1344.27954	499.76831	175.91740	1394.76440	466.79410	190.89355	1342.86206	575.04407	50.50449	1600.85437	887.19446	646.43481	1572.92847	899.92590	522.56042	1571.61011	877.42627	257.04227	1521.50671	880.93597	72.15850	1477.02942	842.07922	48.96535	1518.22339	1034.94958	39.42818	1448.00842	797.87085	1707.79077																					 
300	2.990	1386.44263	904.15918	1675.55237	1517.14001	908.06842	1659.48267	1386.72339	772.60748	1616.77051	1516.05664	777.65063	1605.73193	1436.60449	778.02594	1459.21924	1442.22205	741.92218	1131.63892	1434.30444	888.07867	1382.47009	1422.51135	926.23444	1205.64258	1514.69861	705.68787	1287.08618	1274.32520	833.65906	1416.29846	1203.57446	842.19891	1212.87524	1194.39221	848.03375	1099.91943	1180.28870	902.12256	958.45251	1232.55774	981.93701	861.84760	1189.64880	929.08026	842.85443	1198.93945	985.78351	772.20624	1595.89758	845.51758	1412.51733	1678.99744	811.59167	1211.27454	1687.48328	823.09308	1089.67566	1702.40161	838.99445	970.12219	1668.29626	897.66785	830.88586	1708.35889	844.09509	831.92926	1708.57446	880.15295	754.90167	1319.26099	902.88239	963.41797	1539.37634	925.36877	974.95752	1360.32324	750.85455	997.58997	1527.15625	770.55829	1006.06927	1269.01416	809.09821	647.75397	1284.17639	802.37598	483.73492	1302.20825	620.66510	309.01349	1345.73596	508.33737	179.80118	1396.56897	475.98651	194.85115	1342.08740	582.37622	53.62735	1601.31470	890.24487	646.21106	1573.94092	902.57446	522.26703	1572.01953	878.28607	256.99100	1521.50476	881.01666	72.12904	1476.98694	842.07410	48.96786	1518.30579	1035.04492	39.29960	1449.23352	804.16400	1707.94702																					 
301	3.000	1387.54456	910.45331	1675.67749	1518.28479	914.35986	1659.62878	1387.88013	778.80066	1616.92419	1517.27649	783.90552	1605.92346	1437.93286	784.01953	1459.53760	1443.42188	747.51563	1131.78918	1435.41382	893.97546	1382.59753	1423.61011	931.74335	1205.63391	1516.06372	711.51300	1287.46204	1275.34583	839.14502	1416.29492	1204.81702	846.47113	1212.84509	1195.75427	851.39880	1099.90137	1180.65686	904.14203	958.00726	1231.54895	984.00433	860.62195	1189.08789	930.62891	842.44153	1197.68640	986.32404	770.85913	1597.05090	851.79126	1412.58801	1680.33923	818.31744	1211.32178	1688.81189	830.00757	1089.79333	1703.54248	846.51776	970.26617	1668.86157	905.56262	831.39166	1709.38672	852.30188	832.16132	1709.07800	888.62726	755.21619	1320.35571	908.46997	963.57440	1540.62109	930.64227	975.06732	1361.18420	756.27563	997.56494	1528.23279	775.46539	1006.29303	1269.47009	818.10028	647.32825	1284.33606	813.95044	483.45798	1303.41321	631.78680	310.37579	1347.19409	517.66132	182.97620	1398.53296	485.73792	197.70361	1341.54297	591.06561	56.50472	1602.53699	894.39081	646.36700	1575.03442	905.22278	522.09436	1572.42053	879.23560	256.91266	1521.51538	881.04767	72.08750	1476.94128	842.07404	48.94433	1518.36865	1035.12256	39.19884	1450.34106	810.43317	1708.10559																					 
302	3.010	1388.61121	916.61755	1675.73816	1519.33691	920.62109	1659.74890	1388.99768	784.93878	1617.16858	1518.36389	790.05347	1606.16125	1439.12305	789.98083	1459.80164	1444.53320	752.75677	1132.16382	1436.37476	899.67145	1382.59705	1424.64319	937.09583	1205.61218	1517.36804	717.12689	1287.81812	1276.41370	844.68469	1416.56885	1206.17297	850.57123	1212.86841	1197.05359	854.40558	1099.97571	1180.91345	905.86578	957.66241	1230.26123	985.95532	859.56744	1188.86877	931.36908	841.87439	1196.37476	986.68359	769.71387	1598.18005	858.01648	1412.67566	1681.58582	824.91418	1211.36597	1690.01709	836.87988	1089.87109	1704.59509	853.89478	970.40973	1669.49524	913.61707	831.94482	1710.29004	860.41400	832.38000	1709.59314	897.17706	755.61444	1321.51978	913.93445	963.77203	1541.81396	935.87219	975.23730	1362.22595	761.62042	997.57147	1529.17175	780.91559	1006.40790	1269.96301	827.08258	647.17853	1284.58936	825.45569	483.41077	1304.24402	642.62573	311.78345	1348.69592	527.77783	185.29091	1400.47485	496.10599	199.45990	1340.41699	602.01563	59.72538	1603.33765	897.78961	646.39270	1575.97632	907.81012	521.96198	1572.85339	880.29279	256.85489	1521.56775	881.11395	72.04057	1477.39673	841.97687	49.11324	1518.41174	1035.15662	39.12570	1451.41248	816.72168	1708.31445																					 
303	3.020	1389.49902	922.80310	1675.84741	1520.24890	926.89050	1659.85522	1390.08167	791.03949	1617.45227	1519.41162	796.30566	1606.46973	1440.28149	795.81110	1460.14197	1445.60437	758.27802	1132.46704	1437.35498	905.38147	1382.76514	1425.53918	942.40686	1205.65283	1518.55481	722.81964	1288.21240	1277.32495	849.90289	1416.82214	1207.11804	854.32758	1213.01636	1198.33093	857.03729	1100.12061	1181.42505	906.88678	957.19202	1228.76147	987.76605	858.58826	1188.58862	932.20117	841.61969	1194.84534	986.85529	768.77197	1599.16748	864.14075	1412.75342	1682.77551	831.41992	1211.49609	1691.26428	843.57977	1090.04980	1705.53162	861.22577	970.61414	1669.91174	921.34259	832.55994	1711.37659	868.72943	832.84247	1710.04749	905.54132	756.10620	1322.58240	919.46198	964.01825	1542.99817	941.02686	975.47003	1363.23120	767.00928	997.58472	1530.22156	786.10199	1006.62109	1270.52429	835.98090	647.13971	1284.99280	836.76434	483.52353	1305.28345	653.88239	312.73730	1350.19788	538.67365	186.78998	1402.35278	507.06412	200.24745	1340.02502	613.75000	62.40299	1604.22168	901.24023	646.31262	1576.68384	910.33588	521.71765	1573.23267	881.45251	256.80847	1521.63342	881.25482	72.02357	1477.33337	841.91431	49.15937	1518.41138	1035.24622	39.03467	1452.42932	822.99585	1708.52856																					 
304	3.030	1390.40320	928.95740	1675.97131	1521.12280	933.15247	1659.98730	1391.10535	797.08124	1617.79736	1520.45459	802.47717	1606.87000	1441.37988	801.53253	1460.52319	1446.64075	763.51263	1132.86890	1438.14868	910.88367	1382.87061	1426.34888	947.69189	1205.75305	1519.69910	728.27014	1288.72498	1278.19775	854.99396	1417.15356	1208.16064	857.93738	1213.22522	1199.47388	859.61133	1100.29797	1181.36060	908.23718	957.05676	1227.10718	989.40668	857.84351	1188.49023	932.67584	841.24329	1193.28125	986.94073	767.99915	1600.03613	870.12720	1412.88123	1683.92993	837.78180	1211.67920	1692.37390	850.11267	1090.22302	1706.41699	868.32690	970.85156	1670.27100	928.89056	833.23193	1711.89465	876.35114	832.96313	1710.36963	913.87231	756.63885	1323.56360	925.02911	964.40411	1544.18689	946.14160	975.75842	1364.28333	772.26166	997.79285	1531.29333	791.24756	1006.77234	1271.03638	844.93085	647.26825	1285.52966	847.87677	483.78946	1306.35107	665.29987	313.31229	1351.56775	550.36945	187.42834	1404.02649	518.62720	200.06226	1338.79712	627.32965	64.77785	1604.55212	903.74713	646.02942	1577.50513	912.85150	521.50220	1573.63733	882.65692	256.82144	1521.68506	881.31989	72.00704	1477.39270	841.98767	49.12266	1518.39478	1035.25891	38.97386	1453.43335	829.25519	1708.85583																					 
305	3.040	1391.14502	935.04022	1676.07495	1521.94238	939.44501	1660.11475	1392.09143	803.07721	1618.21362	1521.37207	808.55188	1607.26953	1442.44202	807.14044	1460.91553	1447.71387	768.74823	1133.20984	1438.94995	916.38568	1383.10657	1427.09277	952.90784	1205.94556	1520.72266	733.80225	1289.13708	1279.29150	860.22687	1417.30591	1209.24329	861.44006	1213.49585	1200.50061	862.08319	1100.50562	1181.70239	909.16925	956.81335	1225.31494	991.21130	857.31195	1188.60962	933.03418	840.91199	1191.88428	986.76306	767.31049	1600.83984	875.99976	1413.07959	1684.93872	843.97772	1211.90552	1693.47339	856.48389	1090.47937	1707.35681	875.33026	971.19086	1670.59167	936.34991	833.97913	1712.62878	884.18268	833.38434	1710.73621	922.09106	757.23364	1324.53552	930.70850	964.77100	1545.41016	951.23840	976.07233	1365.27026	777.76428	997.96387	1532.28821	796.32062	1006.96741	1271.65222	853.71002	647.46936	1286.26086	858.84747	484.12906	1307.41040	677.13257	313.29355	1352.84241	562.65259	187.12108	1405.53467	530.82550	198.95615	1338.32849	641.36926	66.16945	1605.85925	908.08362	646.19836	1578.32825	915.29376	521.30896	1573.95422	883.69635	256.79672	1521.72156	881.35449	72.00440	1477.42249	841.85663	49.17238	1518.38855	1035.27478	38.93862	1454.35217	835.55945	1709.20520																					 
306	3.050	1391.82312	941.16797	1676.16223	1522.60791	945.74988	1660.21692	1393.00134	808.93317	1618.77393	1522.27698	814.74554	1607.80493	1443.46399	812.65149	1461.28918	1448.42847	773.48303	1133.70410	1439.56372	921.74780	1383.28906	1427.79956	958.18042	1206.16833	1521.71582	739.22302	1289.54126	1279.77405	864.86115	1417.86389	1210.11560	864.68469	1213.71106	1201.63159	864.66583	1100.82410	1181.96936	910.16119	956.66309	1223.60229	993.19818	857.04517	1189.15662	933.51227	840.54974	1190.82007	986.38293	766.79047	1601.66565	882.06329	1413.39124	1685.91479	850.06073	1212.21301	1694.44995	862.63531	1090.76245	1708.17603	882.11456	971.59100	1670.86072	943.72852	834.78595	1713.26379	891.87671	833.92004	1711.20081	930.21130	758.02283	1325.73096	936.26086	965.20129	1546.59778	956.30353	976.30688	1366.33411	783.22754	998.14844	1533.32483	801.51984	1007.16345	1272.27283	862.37708	647.74371	1287.14258	869.64874	484.58002	1308.40833	689.44885	312.73526	1353.97119	575.70306	185.92645	1406.88464	543.68512	197.02444	1338.01392	656.19525	66.80723	1605.98889	910.72913	645.78827	1578.98743	917.67432	521.01617	1574.21814	884.63306	256.76321	1521.74963	881.38062	71.97405	1477.64514	841.59045	49.31025	1518.37891	1035.28772	38.93346	1455.19531	841.88281	1709.60437																					 
